<?xml version="1.0" encoding="UTF-8"?>
<svg width="298px" height="48px" viewBox="0 0 298 48" version="1.1" xmlns="http://www.w3.org/2000/svg" xmlns:xlink="http://www.w3.org/1999/xlink">
    <!-- Generator: Sketch 49.3 (51167) - http://www.bohemiancoding.com/sketch -->
    <title>Group</title>
    <desc>Created with Sketch.</desc>
    <defs></defs>
    <g id="Symbols" stroke="none" stroke-width="1" fill="none" fill-rule="evenodd">
        <g id="topbar/设计" transform="translate(-24.000000, -16.000000)" fill="#FFFFFF">
            <g id="topbar-设计">
                <g id="Group" transform="translate(24.000000, 16.000000)">
                    <path d="M91.8740234,20.7958984 C91.8740234,22.875987 91.4956093,24.5458921 90.7387695,25.8056641 C89.9819298,27.065436 89.0908254,28.0859336 88.0654297,28.8671875 C86.6103443,30.0097713 84.5742318,30.5810547 81.9570312,30.5810547 L71,30.5810547 L71,10.2783203 L79.4375,10.2783203 C80.7070376,10.2783203 81.7934525,10.3442376 82.6967773,10.4760742 C83.6001022,10.6079108 84.4130823,10.7934558 85.1357422,11.0327148 C85.8584021,11.2719739 86.4736303,11.5405259 86.9814453,11.8383789 C87.4892604,12.136232 87.9433574,12.456053 88.34375,12.7978516 C89.0371128,13.3642606 89.6450169,14.0331993 90.1674805,14.8046875 C90.689944,15.5761757 91.1049789,16.4697215 91.4125977,17.4853516 C91.7202164,18.5009816 91.8740234,19.6044862 91.8740234,20.7958984 Z M85.6484375,20.5322266 C85.6484375,18.8818277 85.3334992,17.5952195 84.7036133,16.6723633 C84.0737273,15.7495071 83.316899,15.1318375 82.4331055,14.8193359 C81.549312,14.5068344 80.6484421,14.3505859 79.7304688,14.3505859 L77.1230469,14.3505859 L77.1230469,26.3769531 L79.7304688,26.3769531 C81.3320393,26.3769531 82.7187441,25.9960976 83.890625,25.234375 C85.0625059,24.4726524 85.6484375,22.9052853 85.6484375,20.5322266 Z M110.082031,24.3994141 L99.5791016,24.3994141 C99.7841807,25.3076217 100.287105,26.0498018 101.087891,26.6259766 C101.888676,27.2021513 102.79687,27.4902344 103.8125,27.4902344 C105.589853,27.4902344 107.552724,26.9921925 109.701172,25.9960938 L109.701172,29.2626953 C108.929684,29.6630879 107.994634,30.0268538 106.895996,30.3540039 C105.797358,30.681154 104.398446,30.8447266 102.699219,30.8447266 C100.863272,30.8447266 99.3007877,30.5029331 98.0117188,29.8193359 C96.7226498,29.1357388 95.758304,28.2080137 95.1186523,27.0361328 C94.4790007,25.864252 94.1591797,24.5361402 94.1591797,23.0517578 C94.1591797,21.5869067 94.4790007,20.2758847 95.1186523,19.1186523 C95.758304,17.96142 96.7226498,17.053226 98.0117188,16.394043 C99.3007877,15.73486 100.863272,15.4052734 102.699219,15.4052734 C103.910162,15.4052734 105.079584,15.6665013 106.20752,16.1889648 C107.335455,16.7114284 108.26318,17.565912 108.990723,18.7524414 C109.718265,19.9389708 110.082031,21.4697172 110.082031,23.3447266 L110.082031,24.3994141 Z M105.130859,21.7919922 C105.130859,20.8349562 104.894045,20.0708036 104.42041,19.4995117 C103.946775,18.9282198 103.265629,18.6425781 102.376953,18.6425781 C101.498042,18.6425781 100.7876,18.9331026 100.245605,19.5141602 C99.7036106,20.0952177 99.4326172,20.8544875 99.4326172,21.7919922 L105.130859,21.7919922 Z M128.392578,15.6689453 L121.610352,30.5810547 L117.713867,30.5810547 L111.078125,15.6689453 L116.74707,15.6689453 L119.837891,23.4765625 L123.265625,15.6689453 L128.392578,15.6689453 Z M152.75293,20.4150391 C152.75293,22.3095798 152.315922,24.0527264 151.441895,25.6445312 C150.567867,27.2363361 149.26661,28.5009719 147.538086,29.4384766 C145.809562,30.3759812 143.705091,30.8447266 141.224609,30.8447266 C138.714831,30.8447266 136.590829,30.3564502 134.852539,29.3798828 C133.114249,28.4033154 131.822758,27.1191486 130.978027,25.5273438 C130.133297,23.9355389 129.710938,22.2314544 129.710938,20.4150391 C129.710938,18.5888581 130.130855,16.8823322 130.970703,15.2954102 C131.810551,13.7084882 133.102042,12.4292041 134.845215,11.4575195 C136.588388,10.485835 138.714831,10 141.224609,10 C143.099619,10 144.771965,10.2783175 146.241699,10.8349609 C147.711433,11.3916043 148.919917,12.1459913 149.867188,13.0981445 C150.814458,14.0502977 151.532224,15.1586851 152.020508,16.4233398 C152.508792,17.6879946 152.75293,19.0185477 152.75293,20.4150391 Z M146.512695,20.4150391 C146.512695,19.6533165 146.400392,18.9575227 146.175781,18.3276367 C145.951171,17.6977508 145.611819,17.1508812 145.157715,16.6870117 C144.703611,16.2231422 144.149417,15.8618177 143.495117,15.6030273 C142.840817,15.344237 142.083989,15.2148438 141.224609,15.2148438 C139.583976,15.2148438 138.294927,15.6933546 137.357422,16.6503906 C136.419917,17.6074267 135.951172,18.8622969 135.951172,20.4150391 C135.951172,21.9677812 136.422359,23.2250928 137.364746,24.1870117 C138.307134,25.1489306 139.593742,25.6298828 141.224609,25.6298828 C142.347662,25.6298828 143.304684,25.4077171 144.095703,24.9633789 C144.886723,24.5190407 145.487303,23.9038125 145.897461,23.1176758 C146.307619,22.331539 146.512695,21.4306691 146.512695,20.4150391 Z M172.074219,23.0224609 C172.074219,24.0185597 171.932619,24.9804641 171.649414,25.9082031 C171.36621,26.8359421 170.934085,27.6733361 170.353027,28.4204102 C169.77197,29.1674842 169.024907,29.7582986 168.111816,30.1928711 C167.198726,30.6274436 166.136725,30.8447266 164.925781,30.8447266 C163.949214,30.8447266 163.180179,30.7421885 162.618652,30.5371094 C162.057126,30.3320302 161.49805,30.0585955 160.941406,29.7167969 L160.941406,37.3632812 L155.667969,37.3632812 L155.667969,15.6689453 L160.941406,15.6689453 L160.941406,17.0166016 C161.468753,16.5576149 162.052243,16.1743179 162.691895,15.8666992 C163.331546,15.5590805 164.198237,15.4052734 165.291992,15.4052734 C166.375982,15.4052734 167.440424,15.6738254 168.485352,16.2109375 C169.530279,16.7480496 170.389645,17.5854435 171.063477,18.7231445 C171.737308,19.8608455 172.074219,21.2939367 172.074219,23.0224609 Z M166.522461,23.1396484 C166.522461,22.2412064 166.380861,21.5112333 166.097656,20.949707 C165.814452,20.3881808 165.448244,19.9829114 164.999023,19.7338867 C164.549802,19.484862 164.08594,19.3603516 163.607422,19.3603516 C162.982419,19.3603516 162.469729,19.4604482 162.069336,19.6606445 C161.668943,19.8608408 161.292971,20.1123032 160.941406,20.4150391 L160.941406,26.1132812 C161.126954,26.210938 161.324706,26.3208002 161.534668,26.4428711 C161.74463,26.564942 161.954589,26.6699214 162.164551,26.7578125 C162.374513,26.8457036 162.59912,26.918945 162.838379,26.9775391 C163.077638,27.0361331 163.333983,27.0654297 163.607422,27.0654297 C164.437504,27.0654297 165.130857,26.7138707 165.6875,26.0107422 C166.244143,25.3076137 166.522461,24.350592 166.522461,23.1396484 Z M186.473633,26.2304688 C186.473633,27.5976631 185.97315,28.7084918 184.972168,29.5629883 C183.971186,30.4174847 182.484385,30.8447266 180.511719,30.8447266 C179.408198,30.8447266 178.426762,30.7446299 177.567383,30.5444336 C176.708004,30.3442373 175.770513,30.0585956 174.754883,29.6875 L174.754883,25.9375 C175.643559,26.445315 176.415036,26.8310534 177.069336,27.0947266 C177.723636,27.3583998 178.441402,27.4902344 179.222656,27.4902344 C180.541022,27.4902344 181.200195,27.1289099 181.200195,26.40625 C181.200195,26.1621082 181.104981,25.9448252 180.914551,25.7543945 C180.72412,25.5639639 180.392092,25.3491223 179.918457,25.1098633 C179.444822,24.8706043 178.812504,24.5849626 178.021484,24.2529297 C177.044917,23.82324 176.214847,23.2470739 175.53125,22.5244141 C174.847653,21.8017542 174.505859,20.917974 174.505859,19.8730469 C174.505859,19.1308557 174.732908,18.4179722 175.187012,17.734375 C175.641116,17.0507778 176.327144,16.4917014 177.245117,16.0571289 C178.163091,15.6225564 179.271478,15.4052734 180.570312,15.4052734 C180.882814,15.4052734 181.280759,15.4272459 181.76416,15.4711914 C182.247561,15.5151369 182.857906,15.6298819 183.595215,15.8154297 C184.332523,16.0009775 185.0332,16.2646467 185.697266,16.6064453 L185.697266,20.2539062 C185.384764,20.0683584 185.123536,19.91211 184.913574,19.7851562 C184.703612,19.6582025 184.422853,19.5166023 184.071289,19.3603516 C183.719725,19.2041008 183.307131,19.064942 182.833496,18.9428711 C182.359861,18.8208002 181.874026,18.7597656 181.375977,18.7597656 C180.770505,18.7597656 180.35547,18.876952 180.130859,19.1113281 C179.906249,19.3457043 179.793945,19.580077 179.793945,19.8144531 C179.793945,20.058595 179.911132,20.2856435 180.145508,20.4956055 C180.379884,20.7055675 180.90234,20.9667953 181.712891,21.2792969 C182.884771,21.7285179 183.822262,22.189939 184.525391,22.6635742 C185.228519,23.1372094 185.729002,23.6572237 186.026855,24.2236328 C186.324709,24.7900419 186.473633,25.4589805 186.473633,26.2304688 Z M219.974609,20.7958984 C219.974609,22.875987 219.596195,24.5458921 218.839355,25.8056641 C218.082516,27.065436 217.191411,28.0859336 216.166016,28.8671875 C214.71093,30.0097713 212.674818,30.5810547 210.057617,30.5810547 L199.100586,30.5810547 L199.100586,10.2783203 L207.538086,10.2783203 C208.807624,10.2783203 209.894038,10.3442376 210.797363,10.4760742 C211.700688,10.6079108 212.513668,10.7934558 213.236328,11.0327148 C213.958988,11.2719739 214.574216,11.5405259 215.082031,11.8383789 C215.589846,12.136232 216.043943,12.456053 216.444336,12.7978516 C217.137699,13.3642606 217.745603,14.0331993 218.268066,14.8046875 C218.79053,15.5761757 219.205565,16.4697215 219.513184,17.4853516 C219.820802,18.5009816 219.974609,19.6044862 219.974609,20.7958984 Z M213.749023,20.5322266 C213.749023,18.8818277 213.434085,17.5952195 212.804199,16.6723633 C212.174313,15.7495071 211.417485,15.1318375 210.533691,14.8193359 C209.649898,14.5068344 208.749028,14.3505859 207.831055,14.3505859 L205.223633,14.3505859 L205.223633,26.3769531 L207.831055,26.3769531 C209.432625,26.3769531 210.81933,25.9960976 211.991211,25.234375 C213.163092,24.4726524 213.749023,22.9052853 213.749023,20.5322266 Z M238.182617,24.3994141 L227.679688,24.3994141 C227.884767,25.3076217 228.387691,26.0498018 229.188477,26.6259766 C229.989262,27.2021513 230.897456,27.4902344 231.913086,27.4902344 C233.690439,27.4902344 235.65331,26.9921925 237.801758,25.9960938 L237.801758,29.2626953 C237.03027,29.6630879 236.09522,30.0268538 234.996582,30.3540039 C233.897944,30.681154 232.499032,30.8447266 230.799805,30.8447266 C228.963858,30.8447266 227.401374,30.5029331 226.112305,29.8193359 C224.823236,29.1357388 223.85889,28.2080137 223.219238,27.0361328 C222.579587,25.864252 222.259766,24.5361402 222.259766,23.0517578 C222.259766,21.5869067 222.579587,20.2758847 223.219238,19.1186523 C223.85889,17.96142 224.823236,17.053226 226.112305,16.394043 C227.401374,15.73486 228.963858,15.4052734 230.799805,15.4052734 C232.010748,15.4052734 233.18017,15.6665013 234.308105,16.1889648 C235.436041,16.7114284 236.363766,17.565912 237.091309,18.7524414 C237.818851,19.9389708 238.182617,21.4697172 238.182617,23.3447266 L238.182617,24.3994141 Z M233.231445,21.7919922 C233.231445,20.8349562 232.994631,20.0708036 232.520996,19.4995117 C232.047361,18.9282198 231.366215,18.6425781 230.477539,18.6425781 C229.598628,18.6425781 228.888186,18.9331026 228.346191,19.5141602 C227.804197,20.0952177 227.533203,20.8544875 227.533203,21.7919922 L233.231445,21.7919922 Z M252.435547,26.2304688 C252.435547,27.5976631 251.935064,28.7084918 250.934082,29.5629883 C249.9331,30.4174847 248.446299,30.8447266 246.473633,30.8447266 C245.370112,30.8447266 244.388676,30.7446299 243.529297,30.5444336 C242.669918,30.3442373 241.732427,30.0585956 240.716797,29.6875 L240.716797,25.9375 C241.605473,26.445315 242.37695,26.8310534 243.03125,27.0947266 C243.68555,27.3583998 244.403316,27.4902344 245.18457,27.4902344 C246.502936,27.4902344 247.162109,27.1289099 247.162109,26.40625 C247.162109,26.1621082 247.066895,25.9448252 246.876465,25.7543945 C246.686034,25.5639639 246.354006,25.3491223 245.880371,25.1098633 C245.406736,24.8706043 244.774418,24.5849626 243.983398,24.2529297 C243.006831,23.82324 242.176761,23.2470739 241.493164,22.5244141 C240.809567,21.8017542 240.467773,20.917974 240.467773,19.8730469 C240.467773,19.1308557 240.694822,18.4179722 241.148926,17.734375 C241.60303,17.0507778 242.289058,16.4917014 243.207031,16.0571289 C244.125005,15.6225564 245.233392,15.4052734 246.532227,15.4052734 C246.844728,15.4052734 247.242673,15.4272459 247.726074,15.4711914 C248.209475,15.5151369 248.819821,15.6298819 249.557129,15.8154297 C250.294437,16.0009775 250.995114,16.2646467 251.65918,16.6064453 L251.65918,20.2539062 C251.346678,20.0683584 251.08545,19.91211 250.875488,19.7851562 C250.665526,19.6582025 250.384767,19.5166023 250.033203,19.3603516 C249.681639,19.2041008 249.269045,19.064942 248.79541,18.9428711 C248.321775,18.8208002 247.83594,18.7597656 247.337891,18.7597656 C246.732419,18.7597656 246.317384,18.876952 246.092773,19.1113281 C245.868163,19.3457043 245.755859,19.580077 245.755859,19.8144531 C245.755859,20.058595 245.873046,20.2856435 246.107422,20.4956055 C246.341798,20.7055675 246.864254,20.9667953 247.674805,21.2792969 C248.846686,21.7285179 249.784176,22.189939 250.487305,22.6635742 C251.190433,23.1372094 251.690916,23.6572237 251.98877,24.2236328 C252.286623,24.7900419 252.435547,25.4589805 252.435547,26.2304688 Z M260.418945,12.2265625 C260.418945,12.8418 260.199221,13.3642557 259.759766,13.7939453 C259.32031,14.223635 258.797855,14.4384766 258.192383,14.4384766 C257.782225,14.4384766 257.408693,14.3408213 257.071777,14.1455078 C256.734862,13.9501943 256.468751,13.6840837 256.273438,13.347168 C256.078124,13.0102522 255.980469,12.6367208 255.980469,12.2265625 C255.980469,11.6210907 256.19531,11.098635 256.625,10.6591797 C257.05469,10.2197244 257.577145,10 258.192383,10 C258.797855,10 259.32031,10.2197244 259.759766,10.6591797 C260.199221,11.098635 260.418945,11.6210907 260.418945,12.2265625 Z M260.84375,30.5810547 L255.555664,30.5810547 L255.555664,15.6689453 L260.84375,15.6689453 L260.84375,30.5810547 Z M279.476562,18.8476562 L276.869141,18.8476562 C277.787114,19.6484415 278.246094,20.629877 278.246094,21.7919922 C278.246094,22.4072296 278.116701,22.998044 277.85791,23.5644531 C277.59912,24.1308622 277.218264,24.6337869 276.715332,25.0732422 C276.2124,25.5126975 275.592289,25.8715806 274.85498,26.1499023 C274.117672,26.428224 273.275395,26.5966794 272.328125,26.6552734 C271.107416,26.7041018 270.49707,27.031247 270.49707,27.6367188 C270.49707,27.8710949 270.575195,28.0419917 270.731445,28.1494141 C270.887696,28.2568365 271.134276,28.3374021 271.471191,28.3911133 C271.808107,28.4448245 272.376949,28.505859 273.177734,28.5742188 C274.085942,28.6523441 274.93066,28.7890615 275.711914,28.984375 C276.493168,29.1796885 277.2207,29.5898406 277.894531,30.2148438 C278.568363,30.8398469 278.905273,31.7333926 278.905273,32.8955078 C278.905273,33.8232468 278.653811,34.6435511 278.150879,35.3564453 C277.647947,36.0693395 276.834967,36.6259746 275.711914,37.0263672 C274.588862,37.4267598 273.104501,37.6269531 271.258789,37.6269531 C268.602526,37.6269531 266.651862,37.2705114 265.406738,36.5576172 C264.161615,35.844723 263.539062,34.8925841 263.539062,33.7011719 C263.539062,33.3789046 263.619628,33.0078146 263.780762,32.5878906 C263.941895,32.1679667 264.283689,31.7626973 264.806152,31.3720703 C265.328616,30.9814434 266.087886,30.7177741 267.083984,30.5810547 C266.73242,30.4541009 266.429689,30.2075214 266.175781,29.8413086 C265.921874,29.4750958 265.794922,29.0917989 265.794922,28.6914062 C265.794922,28.1738255 265.973143,27.6611354 266.32959,27.1533203 C266.686037,26.6455053 267.264644,26.3183601 268.06543,26.171875 C266.952143,25.8789048 265.990238,25.3271525 265.179688,24.5166016 C264.369137,23.7060506 263.963867,22.6562564 263.963867,21.3671875 C263.963867,20.3906201 264.151854,19.5361365 264.527832,18.8037109 C264.90381,18.0712854 265.423825,17.4755882 266.087891,17.0166016 C266.751956,16.5576149 267.523433,16.2182628 268.402344,15.9985352 C269.281254,15.7788075 270.243159,15.6689453 271.288086,15.6689453 L279.476562,15.6689453 L279.476562,18.8476562 Z M273.646484,21.3671875 C273.646484,20.6152306 273.390139,20.0122093 272.877441,19.5581055 C272.364744,19.1040016 271.791019,18.8769531 271.15625,18.8769531 C270.345699,18.8769531 269.708498,19.1503879 269.244629,19.6972656 C268.780759,20.2441434 268.548828,20.8203095 268.548828,21.4257812 C268.548828,21.8457052 268.648925,22.2363263 268.849121,22.5976562 C269.049317,22.9589862 269.332518,23.2495106 269.69873,23.4692383 C270.064943,23.6889659 270.501951,23.7988281 271.009766,23.7988281 C271.771488,23.7988281 272.401365,23.5595727 272.899414,23.0810547 C273.397463,22.6025367 273.646484,22.0312533 273.646484,21.3671875 Z M274.701172,33.3642578 C274.701172,32.7099577 274.352054,32.2875986 273.653809,32.097168 C272.955563,31.9067373 272.235355,31.8115234 271.493164,31.8115234 C270.272455,31.8115234 269.391116,31.9409167 268.849121,32.199707 C268.307126,32.4584974 268.036133,32.8710909 268.036133,33.4375 C268.036133,34.5507868 269.159168,35.1074219 271.405273,35.1074219 C272.411138,35.1074219 273.211911,34.9633803 273.807617,34.675293 C274.403323,34.3872056 274.701172,33.9501982 274.701172,33.3642578 Z M297.289062,30.5810547 L292.015625,30.5810547 L292.015625,22.5390625 C292.015625,21.7187459 291.881349,21.003421 291.612793,20.3930664 C291.344237,19.7827118 290.755864,19.4775391 289.847656,19.4775391 C289.417967,19.4775391 289.039552,19.5581047 288.712402,19.7192383 C288.385252,19.8803719 288.092286,20.0878894 287.833496,20.3417969 C287.574706,20.5957044 287.357423,20.8398426 287.181641,21.0742188 C287.005858,21.3085949 286.825196,21.5576159 286.639648,21.8212891 L286.639648,30.5810547 L281.366211,30.5810547 L281.366211,15.6689453 L286.639648,15.6689453 L286.639648,17.8076172 C287.469731,16.9189409 288.302242,16.2963885 289.137207,15.9399414 C289.972172,15.5834943 290.902339,15.4052734 291.927734,15.4052734 C295.501971,15.4052734 297.289062,17.5439239 297.289062,21.8212891 L297.289062,30.5810547 Z" id="DevOps-Design"></path>
                    <path d="M25.7871225,0 L26.8479724,0 L27.981428,0.10780618 L29.0463115,0.159850542 L30.0506903,0.323418539 L31.1196074,0.486986536 L32.1280198,0.706316349 L33.1364323,0.977690526 L34.140811,1.25278216 L34.6167817,1.41635015 L35.0927524,1.5836356 L36.0406601,1.96281596 L36.9885677,2.34571377 L37.8759707,2.78065594 L38.7633736,3.21931557 L39.6548102,3.71001956 L40.4897757,4.25648537 L41.3166739,4.80295118 L42.0871009,5.34941698 L42.857528,5.95164461 L43.6279551,6.60591659 L44.3378775,7.26018858 L45.0518335,7.92189548 L45.7052847,8.63192928 L45.9997412,9.01110964 L46.2941976,9.39400745 L46.9476488,10.1635205 L47.4841242,10.9218812 L48.0125324,11.6913943 L48.5449741,12.5092343 L48.96044,13.3828361 L49.4364107,14.2043935 L49.7913719,15.0779953 L50.146333,16.0036415 L50.5053279,16.8809607 L39.4773296,16.8809607 L32.6604616,2.18214577 L25.5451035,18.739688 L18.0747843,2.34571377 L4.91701898,33.6541153 L10.9069888,40.538841 L41.373145,40.538841 L46.9476488,33.0481702 L46.4152071,31.9031943 L50.0293572,31.9031943 L49.6703624,32.7767961 L49.2589301,33.594636 L48.8434642,34.4161935 L48.4279983,35.1819891 L47.8955565,35.9998291 L47.4195858,36.7656247 L46.830673,37.479376 L46.2941976,38.1819749 L45.7052847,38.8957261 L45.0518335,39.6094774 L44.3983822,40.211705 L43.6884599,40.8622595 L42.9745039,41.4682046 L42.2605479,42.0667148 L41.4941544,42.616898 L40.7196937,43.1559289 L39.9492666,43.6503504 L39.1223684,44.1410544 L38.2954702,44.579714 L37.4040336,45.0183736 L36.5166307,45.397554 L35.6251941,45.7284074 L34.6772865,46.0555434 L33.7898835,46.3826794 L32.8379422,46.6577711 L31.8295298,46.8771009 L30.8775884,47.0927132 L29.8732097,47.2562812 L29.4012726,47.312043 L28.8647972,47.3678049 L27.8563848,47.475611 L26.8479724,47.5313729 L24.48022,47.5313729 L23.1773512,47.4198492 L21.8704487,47.2562812 L20.5635462,47.0406689 L19.3211821,46.7618598 L18.1393227,46.4904856 L16.949396,46.1075878 L15.763503,45.6726456 L14.6381148,45.1819416 L13.5127265,44.6875202 L12.9762511,44.3603842 L12.447843,44.08901 L11.3748921,43.4867824 L10.3664797,42.828793 L9.36210095,42.1224766 L8.89016393,41.7395788 L8.47469802,41.356681 L8.002761,40.9737832 L7.58729508,40.5908854 L6.6958585,39.7693279 L5.86089301,38.8957261 L5.50996549,38.4607839 L5.15097066,37.9663625 L4.38457722,37.0369989 L4.08608714,36.6020567 L3.73112597,36.1076353 L3.43666954,35.6169313 L3.13817947,35.0704655 L2.54523296,34.0927749 L2.0127912,32.9961259 L1.59732528,31.9626735 L1.18185936,30.8102626 L0.826898188,29.7210485 L0.645383952,29.1151034 L0.52840811,28.5723551 L0.411432269,27.9701274 L0.294456428,27.3716173 L0.112942192,26.2229238 L0.0564710958,24.9664242 L0,24.3641966 L0,23.761969 L0.112942192,21.3567759 L0.294456428,20.1560381 L0.52840811,18.9515829 L0.826898188,17.8066069 L1.18185936,16.7136753 L1.59732528,15.6244611 L2.0127912,14.5315295 L2.54523296,13.4906423 L3.13817947,12.449755 L3.43666954,11.9627685 L3.73112597,11.4720645 L4.38457722,10.4869391 L5.15097066,9.55757544 L5.86089301,8.63192928 L6.28039258,8.19326965 L6.6958585,7.81037184 L7.11132442,7.37542967 L7.58729508,6.9888144 L8.47469802,6.17097442 L9.36210095,5.4051788 L9.89857636,5.07804281 L10.3664797,4.75090681 L11.3748921,4.04087301 L11.9113676,3.76578138 L12.447843,3.43864538 L12.9762511,3.16355375 L13.5127265,2.89217958 L14.6381148,2.34571377 L15.763503,1.85500978 L16.949396,1.41635015 L18.1393227,1.08921416 L19.3211821,0.758360712 L19.9705997,0.594792715 L20.5635462,0.486986536 L21.2169974,0.379180356 L21.8704487,0.271374176 L23.1773512,0.10780618 L24.48022,0.0483269081 L25.1336713,0 L25.7871225,0 Z M40.0702761,18.1932222 L50.860289,18.1932222 L51.0982744,19.1746302 L40.5422131,19.1746302 L40.0702761,18.1932222 Z M41.1351596,20.4831741 L51.3362597,20.4831741 L51.4532355,21.4682996 L41.5506255,21.4682996 L41.1351596,20.4831741 Z M42.2040768,22.780561 L51.5702114,22.780561 L51.5702114,23.761969 L42.6195427,23.761969 L42.2040768,22.780561 Z M43.2124892,25.0742304 L51.5702114,25.0742304 L51.4532355,26.0593558 L43.6884599,26.0593558 L43.2124892,25.0742304 Z M44.2814064,27.3716173 L51.275755,27.3716173 L51.0982744,28.3530252 L44.7533434,28.3530252 L44.2814064,27.3716173 Z M45.3462899,29.6652867 L50.8038179,29.6652867 L50.5053279,30.5946503 L45.8222606,30.5946503 L45.3462899,29.6652867 Z M9.00713978,33.3753062 L16.0014884,17.0965731 L23.294327,33.3753062 L9.00713978,33.3753062 Z M23.6492882,33.3753062 L30.6436368,17.0965731 L37.9364754,33.3753062 L23.6492882,33.3753062 Z" id="Fill-585"></path>
                </g>
            </g>
        </g>
    </g>
</svg>