<?xml version="1.0" encoding="UTF-8"?>
<svg width="292px" height="50px" viewBox="0 0 292 50" version="1.1" xmlns="http://www.w3.org/2000/svg" xmlns:xlink="http://www.w3.org/1999/xlink">
  <!-- Generator: Sketch 49.3 (51167) - http://www.bohemiancoding.com/sketch -->
  <title>Group</title>
  <desc>Created with Sketch.</desc>
  <defs></defs>
  <g id="DSHi-Fi" stroke="none" stroke-width="1" fill="none" fill-rule="evenodd">
    <g id="DPS-Design---设计---布局-Copy" transform="translate(-23.000000, -15.000000)" fill="#FFFFFF">
      <g id="topbar-设计">
        <g id="Group" transform="translate(24.000000, 16.000000)">
          <g id="Group-4">
            <path d="M84.8740234,23.7958984 C84.8740234,25.875987 84.4956093,27.5458921 83.7387695,28.8056641 C82.9819298,30.065436 82.0908254,31.0859336 81.0654297,31.8671875 C79.6103443,33.0097713 77.5742318,33.5810547 74.9570312,33.5810547 L64,33.5810547 L64,13.2783203 L72.4375,13.2783203 C73.7070376,13.2783203 74.7934525,13.3442376 75.6967773,13.4760742 C76.6001022,13.6079108 77.4130823,13.7934558 78.1357422,14.0327148 C78.8584021,14.2719739 79.4736303,14.5405259 79.9814453,14.8383789 C80.4892604,15.136232 80.9433574,15.456053 81.34375,15.7978516 C82.0371128,16.3642606 82.6450169,17.0331993 83.1674805,17.8046875 C83.689944,18.5761757 84.1049789,19.4697215 84.4125977,20.4853516 C84.7202164,21.5009816 84.8740234,22.6044862 84.8740234,23.7958984 Z M78.6484375,23.5322266 C78.6484375,21.8818277 78.3334992,20.5952195 77.7036133,19.6723633 C77.0737273,18.7495071 76.316899,18.1318375 75.4331055,17.8193359 C74.549312,17.5068344 73.6484421,17.3505859 72.7304688,17.3505859 L70.1230469,17.3505859 L70.1230469,29.3769531 L72.7304688,29.3769531 C74.3320393,29.3769531 75.7187441,28.9960976 76.890625,28.234375 C78.0625059,27.4726524 78.6484375,25.9052853 78.6484375,23.5322266 Z M103.082031,27.3994141 L92.5791016,27.3994141 C92.7841807,28.3076217 93.2871054,29.0498018 94.0878906,29.6259766 C94.8886759,30.2021513 95.7968699,30.4902344 96.8125,30.4902344 C98.5898526,30.4902344 100.552724,29.9921925 102.701172,28.9960938 L102.701172,32.2626953 C101.929684,32.6630879 100.994634,33.0268538 99.8959961,33.3540039 C98.7973578,33.681154 97.398446,33.8447266 95.6992188,33.8447266 C93.8632721,33.8447266 92.3007877,33.5029331 91.0117188,32.8193359 C89.7226498,32.1357388 88.758304,31.2080137 88.1186523,30.0361328 C87.4790007,28.864252 87.1591797,27.5361402 87.1591797,26.0517578 C87.1591797,24.5869067 87.4790007,23.2758847 88.1186523,22.1186523 C88.758304,20.96142 89.7226498,20.053226 91.0117188,19.394043 C92.3007877,18.73486 93.8632721,18.4052734 95.6992188,18.4052734 C96.9101623,18.4052734 98.0795842,18.6665013 99.2075195,19.1889648 C100.335455,19.7114284 101.26318,20.565912 101.990723,21.7524414 C102.718265,22.9389708 103.082031,24.4697172 103.082031,26.3447266 L103.082031,27.3994141 Z M98.1308594,24.7919922 C98.1308594,23.8349562 97.8940453,23.0708036 97.4204102,22.4995117 C96.946775,21.9282198 96.2656294,21.6425781 95.3769531,21.6425781 C94.4980425,21.6425781 93.7876004,21.9331026 93.2456055,22.5141602 C92.7036106,23.0952177 92.4326172,23.8544875 92.4326172,24.7919922 L98.1308594,24.7919922 Z M121.392578,18.6689453 L114.610352,33.5810547 L110.713867,33.5810547 L104.078125,18.6689453 L109.74707,18.6689453 L112.837891,26.4765625 L116.265625,18.6689453 L121.392578,18.6689453 Z M145.75293,23.4150391 C145.75293,25.3095798 145.315922,27.0527264 144.441895,28.6445312 C143.567867,30.2363361 142.26661,31.5009719 140.538086,32.4384766 C138.809562,33.3759812 136.705091,33.8447266 134.224609,33.8447266 C131.714831,33.8447266 129.590829,33.3564502 127.852539,32.3798828 C126.114249,31.4033154 124.822758,30.1191486 123.978027,28.5273438 C123.133297,26.9355389 122.710938,25.2314544 122.710938,23.4150391 C122.710938,21.5888581 123.130855,19.8823322 123.970703,18.2954102 C124.810551,16.7084882 126.102042,15.4292041 127.845215,14.4575195 C129.588388,13.485835 131.714831,13 134.224609,13 C136.099619,13 137.771965,13.2783175 139.241699,13.8349609 C140.711433,14.3916043 141.919917,15.1459913 142.867188,16.0981445 C143.814458,17.0502977 144.532224,18.1586851 145.020508,19.4233398 C145.508792,20.6879946 145.75293,22.0185477 145.75293,23.4150391 Z M139.512695,23.4150391 C139.512695,22.6533165 139.400392,21.9575227 139.175781,21.3276367 C138.951171,20.6977508 138.611819,20.1508812 138.157715,19.6870117 C137.703611,19.2231422 137.149417,18.8618177 136.495117,18.6030273 C135.840817,18.344237 135.083989,18.2148438 134.224609,18.2148438 C132.583976,18.2148438 131.294927,18.6933546 130.357422,19.6503906 C129.419917,20.6074267 128.951172,21.8622969 128.951172,23.4150391 C128.951172,24.9677812 129.422359,26.2250928 130.364746,27.1870117 C131.307134,28.1489306 132.593742,28.6298828 134.224609,28.6298828 C135.347662,28.6298828 136.304684,28.4077171 137.095703,27.9633789 C137.886723,27.5190407 138.487303,26.9038125 138.897461,26.1176758 C139.307619,25.331539 139.512695,24.4306691 139.512695,23.4150391 Z M165.074219,26.0224609 C165.074219,27.0185597 164.932619,27.9804641 164.649414,28.9082031 C164.36621,29.8359421 163.934085,30.6733361 163.353027,31.4204102 C162.77197,32.1674842 162.024907,32.7582986 161.111816,33.1928711 C160.198726,33.6274436 159.136725,33.8447266 157.925781,33.8447266 C156.949214,33.8447266 156.180179,33.7421885 155.618652,33.5371094 C155.057126,33.3320302 154.49805,33.0585955 153.941406,32.7167969 L153.941406,40.3632812 L148.667969,40.3632812 L148.667969,18.6689453 L153.941406,18.6689453 L153.941406,20.0166016 C154.468753,19.5576149 155.052243,19.1743179 155.691895,18.8666992 C156.331546,18.5590805 157.198237,18.4052734 158.291992,18.4052734 C159.375982,18.4052734 160.440424,18.6738254 161.485352,19.2109375 C162.530279,19.7480496 163.389645,20.5854435 164.063477,21.7231445 C164.737308,22.8608455 165.074219,24.2939367 165.074219,26.0224609 Z M159.522461,26.1396484 C159.522461,25.2412064 159.380861,24.5112333 159.097656,23.949707 C158.814452,23.3881808 158.448244,22.9829114 157.999023,22.7338867 C157.549802,22.484862 157.08594,22.3603516 156.607422,22.3603516 C155.982419,22.3603516 155.469729,22.4604482 155.069336,22.6606445 C154.668943,22.8608408 154.292971,23.1123032 153.941406,23.4150391 L153.941406,29.1132812 C154.126954,29.210938 154.324706,29.3208002 154.534668,29.4428711 C154.74463,29.564942 154.954589,29.6699214 155.164551,29.7578125 C155.374513,29.8457036 155.59912,29.918945 155.838379,29.9775391 C156.077638,30.0361331 156.333983,30.0654297 156.607422,30.0654297 C157.437504,30.0654297 158.130857,29.7138707 158.6875,29.0107422 C159.244143,28.3076137 159.522461,27.350592 159.522461,26.1396484 Z M179.473633,29.2304688 C179.473633,30.5976631 178.97315,31.7084918 177.972168,32.5629883 C176.971186,33.4174847 175.484385,33.8447266 173.511719,33.8447266 C172.408198,33.8447266 171.426762,33.7446299 170.567383,33.5444336 C169.708004,33.3442373 168.770513,33.0585956 167.754883,32.6875 L167.754883,28.9375 C168.643559,29.445315 169.415036,29.8310534 170.069336,30.0947266 C170.723636,30.3583998 171.441402,30.4902344 172.222656,30.4902344 C173.541022,30.4902344 174.200195,30.1289099 174.200195,29.40625 C174.200195,29.1621082 174.104981,28.9448252 173.914551,28.7543945 C173.72412,28.5639639 173.392092,28.3491223 172.918457,28.1098633 C172.444822,27.8706043 171.812504,27.5849626 171.021484,27.2529297 C170.044917,26.82324 169.214847,26.2470739 168.53125,25.5244141 C167.847653,24.8017542 167.505859,23.917974 167.505859,22.8730469 C167.505859,22.1308557 167.732908,21.4179722 168.187012,20.734375 C168.641116,20.0507778 169.327144,19.4917014 170.245117,19.0571289 C171.163091,18.6225564 172.271478,18.4052734 173.570312,18.4052734 C173.882814,18.4052734 174.280759,18.4272459 174.76416,18.4711914 C175.247561,18.5151369 175.857906,18.6298819 176.595215,18.8154297 C177.332523,19.0009775 178.0332,19.2646467 178.697266,19.6064453 L178.697266,23.2539062 C178.384764,23.0683584 178.123536,22.91211 177.913574,22.7851562 C177.703612,22.6582025 177.422853,22.5166023 177.071289,22.3603516 C176.719725,22.2041008 176.307131,22.064942 175.833496,21.9428711 C175.359861,21.8208002 174.874026,21.7597656 174.375977,21.7597656 C173.770505,21.7597656 173.35547,21.876952 173.130859,22.1113281 C172.906249,22.3457043 172.793945,22.580077 172.793945,22.8144531 C172.793945,23.058595 172.911132,23.2856435 173.145508,23.4956055 C173.379884,23.7055675 173.90234,23.9667953 174.712891,24.2792969 C175.884771,24.7285179 176.822262,25.189939 177.525391,25.6635742 C178.228519,26.1372094 178.729002,26.6572237 179.026855,27.2236328 C179.324709,27.7900419 179.473633,28.4589805 179.473633,29.2304688 Z M212.974609,23.7958984 C212.974609,25.875987 212.596195,27.5458921 211.839355,28.8056641 C211.082516,30.065436 210.191411,31.0859336 209.166016,31.8671875 C207.71093,33.0097713 205.674818,33.5810547 203.057617,33.5810547 L192.100586,33.5810547 L192.100586,13.2783203 L200.538086,13.2783203 C201.807624,13.2783203 202.894038,13.3442376 203.797363,13.4760742 C204.700688,13.6079108 205.513668,13.7934558 206.236328,14.0327148 C206.958988,14.2719739 207.574216,14.5405259 208.082031,14.8383789 C208.589846,15.136232 209.043943,15.456053 209.444336,15.7978516 C210.137699,16.3642606 210.745603,17.0331993 211.268066,17.8046875 C211.79053,18.5761757 212.205565,19.4697215 212.513184,20.4853516 C212.820802,21.5009816 212.974609,22.6044862 212.974609,23.7958984 Z M206.749023,23.5322266 C206.749023,21.8818277 206.434085,20.5952195 205.804199,19.6723633 C205.174313,18.7495071 204.417485,18.1318375 203.533691,17.8193359 C202.649898,17.5068344 201.749028,17.3505859 200.831055,17.3505859 L198.223633,17.3505859 L198.223633,29.3769531 L200.831055,29.3769531 C202.432625,29.3769531 203.81933,28.9960976 204.991211,28.234375 C206.163092,27.4726524 206.749023,25.9052853 206.749023,23.5322266 Z M231.182617,27.3994141 L220.679688,27.3994141 C220.884767,28.3076217 221.387691,29.0498018 222.188477,29.6259766 C222.989262,30.2021513 223.897456,30.4902344 224.913086,30.4902344 C226.690439,30.4902344 228.65331,29.9921925 230.801758,28.9960938 L230.801758,32.2626953 C230.03027,32.6630879 229.09522,33.0268538 227.996582,33.3540039 C226.897944,33.681154 225.499032,33.8447266 223.799805,33.8447266 C221.963858,33.8447266 220.401374,33.5029331 219.112305,32.8193359 C217.823236,32.1357388 216.85889,31.2080137 216.219238,30.0361328 C215.579587,28.864252 215.259766,27.5361402 215.259766,26.0517578 C215.259766,24.5869067 215.579587,23.2758847 216.219238,22.1186523 C216.85889,20.96142 217.823236,20.053226 219.112305,19.394043 C220.401374,18.73486 221.963858,18.4052734 223.799805,18.4052734 C225.010748,18.4052734 226.18017,18.6665013 227.308105,19.1889648 C228.436041,19.7114284 229.363766,20.565912 230.091309,21.7524414 C230.818851,22.9389708 231.182617,24.4697172 231.182617,26.3447266 L231.182617,27.3994141 Z M226.231445,24.7919922 C226.231445,23.8349562 225.994631,23.0708036 225.520996,22.4995117 C225.047361,21.9282198 224.366215,21.6425781 223.477539,21.6425781 C222.598628,21.6425781 221.888186,21.9331026 221.346191,22.5141602 C220.804197,23.0952177 220.533203,23.8544875 220.533203,24.7919922 L226.231445,24.7919922 Z M245.435547,29.2304688 C245.435547,30.5976631 244.935064,31.7084918 243.934082,32.5629883 C242.9331,33.4174847 241.446299,33.8447266 239.473633,33.8447266 C238.370112,33.8447266 237.388676,33.7446299 236.529297,33.5444336 C235.669918,33.3442373 234.732427,33.0585956 233.716797,32.6875 L233.716797,28.9375 C234.605473,29.445315 235.37695,29.8310534 236.03125,30.0947266 C236.68555,30.3583998 237.403316,30.4902344 238.18457,30.4902344 C239.502936,30.4902344 240.162109,30.1289099 240.162109,29.40625 C240.162109,29.1621082 240.066895,28.9448252 239.876465,28.7543945 C239.686034,28.5639639 239.354006,28.3491223 238.880371,28.1098633 C238.406736,27.8706043 237.774418,27.5849626 236.983398,27.2529297 C236.006831,26.82324 235.176761,26.2470739 234.493164,25.5244141 C233.809567,24.8017542 233.467773,23.917974 233.467773,22.8730469 C233.467773,22.1308557 233.694822,21.4179722 234.148926,20.734375 C234.60303,20.0507778 235.289058,19.4917014 236.207031,19.0571289 C237.125005,18.6225564 238.233392,18.4052734 239.532227,18.4052734 C239.844728,18.4052734 240.242673,18.4272459 240.726074,18.4711914 C241.209475,18.5151369 241.819821,18.6298819 242.557129,18.8154297 C243.294437,19.0009775 243.995114,19.2646467 244.65918,19.6064453 L244.65918,23.2539062 C244.346678,23.0683584 244.08545,22.91211 243.875488,22.7851562 C243.665526,22.6582025 243.384767,22.5166023 243.033203,22.3603516 C242.681639,22.2041008 242.269045,22.064942 241.79541,21.9428711 C241.321775,21.8208002 240.83594,21.7597656 240.337891,21.7597656 C239.732419,21.7597656 239.317384,21.876952 239.092773,22.1113281 C238.868163,22.3457043 238.755859,22.580077 238.755859,22.8144531 C238.755859,23.058595 238.873046,23.2856435 239.107422,23.4956055 C239.341798,23.7055675 239.864254,23.9667953 240.674805,24.2792969 C241.846686,24.7285179 242.784176,25.189939 243.487305,25.6635742 C244.190433,26.1372094 244.690916,26.6572237 244.98877,27.2236328 C245.286623,27.7900419 245.435547,28.4589805 245.435547,29.2304688 Z M253.418945,15.2265625 C253.418945,15.8418 253.199221,16.3642557 252.759766,16.7939453 C252.32031,17.223635 251.797855,17.4384766 251.192383,17.4384766 C250.782225,17.4384766 250.408693,17.3408213 250.071777,17.1455078 C249.734862,16.9501943 249.468751,16.6840837 249.273438,16.347168 C249.078124,16.0102522 248.980469,15.6367208 248.980469,15.2265625 C248.980469,14.6210907 249.19531,14.098635 249.625,13.6591797 C250.05469,13.2197244 250.577145,13 251.192383,13 C251.797855,13 252.32031,13.2197244 252.759766,13.6591797 C253.199221,14.098635 253.418945,14.6210907 253.418945,15.2265625 Z M253.84375,33.5810547 L248.555664,33.5810547 L248.555664,18.6689453 L253.84375,18.6689453 L253.84375,33.5810547 Z M272.476562,21.8476562 L269.869141,21.8476562 C270.787114,22.6484415 271.246094,23.629877 271.246094,24.7919922 C271.246094,25.4072296 271.116701,25.998044 270.85791,26.5644531 C270.59912,27.1308622 270.218264,27.6337869 269.715332,28.0732422 C269.2124,28.5126975 268.592289,28.8715806 267.85498,29.1499023 C267.117672,29.428224 266.275395,29.5966794 265.328125,29.6552734 C264.107416,29.7041018 263.49707,30.031247 263.49707,30.6367188 C263.49707,30.8710949 263.575195,31.0419917 263.731445,31.1494141 C263.887696,31.2568365 264.134276,31.3374021 264.471191,31.3911133 C264.808107,31.4448245 265.376949,31.505859 266.177734,31.5742188 C267.085942,31.6523441 267.93066,31.7890615 268.711914,31.984375 C269.493168,32.1796885 270.2207,32.5898406 270.894531,33.2148438 C271.568363,33.8398469 271.905273,34.7333926 271.905273,35.8955078 C271.905273,36.8232468 271.653811,37.6435511 271.150879,38.3564453 C270.647947,39.0693395 269.834967,39.6259746 268.711914,40.0263672 C267.588862,40.4267598 266.104501,40.6269531 264.258789,40.6269531 C261.602526,40.6269531 259.651862,40.2705114 258.406738,39.5576172 C257.161615,38.844723 256.539062,37.8925841 256.539062,36.7011719 C256.539062,36.3789046 256.619628,36.0078146 256.780762,35.5878906 C256.941895,35.1679667 257.283689,34.7626973 257.806152,34.3720703 C258.328616,33.9814434 259.087886,33.7177741 260.083984,33.5810547 C259.73242,33.4541009 259.429689,33.2075214 259.175781,32.8413086 C258.921874,32.4750958 258.794922,32.0917989 258.794922,31.6914062 C258.794922,31.1738255 258.973143,30.6611354 259.32959,30.1533203 C259.686037,29.6455053 260.264644,29.3183601 261.06543,29.171875 C259.952143,28.8789048 258.990238,28.3271525 258.179688,27.5166016 C257.369137,26.7060506 256.963867,25.6562564 256.963867,24.3671875 C256.963867,23.3906201 257.151854,22.5361365 257.527832,21.8037109 C257.90381,21.0712854 258.423825,20.4755882 259.087891,20.0166016 C259.751956,19.5576149 260.523433,19.2182628 261.402344,18.9985352 C262.281254,18.7788075 263.243159,18.6689453 264.288086,18.6689453 L272.476562,18.6689453 L272.476562,21.8476562 Z M266.646484,24.3671875 C266.646484,23.6152306 266.390139,23.0122093 265.877441,22.5581055 C265.364744,22.1040016 264.791019,21.8769531 264.15625,21.8769531 C263.345699,21.8769531 262.708498,22.1503879 262.244629,22.6972656 C261.780759,23.2441434 261.548828,23.8203095 261.548828,24.4257812 C261.548828,24.8457052 261.648925,25.2363263 261.849121,25.5976562 C262.049317,25.9589862 262.332518,26.2495106 262.69873,26.4692383 C263.064943,26.6889659 263.501951,26.7988281 264.009766,26.7988281 C264.771488,26.7988281 265.401365,26.5595727 265.899414,26.0810547 C266.397463,25.6025367 266.646484,25.0312533 266.646484,24.3671875 Z M267.701172,36.3642578 C267.701172,35.7099577 267.352054,35.2875986 266.653809,35.097168 C265.955563,34.9067373 265.235355,34.8115234 264.493164,34.8115234 C263.272455,34.8115234 262.391116,34.9409167 261.849121,35.199707 C261.307126,35.4584974 261.036133,35.8710909 261.036133,36.4375 C261.036133,37.5507868 262.159168,38.1074219 264.405273,38.1074219 C265.411138,38.1074219 266.211911,37.9633803 266.807617,37.675293 C267.403323,37.3872056 267.701172,36.9501982 267.701172,36.3642578 Z M290.289062,33.5810547 L285.015625,33.5810547 L285.015625,25.5390625 C285.015625,24.7187459 284.881349,24.003421 284.612793,23.3930664 C284.344237,22.7827118 283.755864,22.4775391 282.847656,22.4775391 C282.417967,22.4775391 282.039552,22.5581047 281.712402,22.7192383 C281.385252,22.8803719 281.092286,23.0878894 280.833496,23.3417969 C280.574706,23.5957044 280.357423,23.8398426 280.181641,24.0742188 C280.005858,24.3085949 279.825196,24.5576159 279.639648,24.8212891 L279.639648,33.5810547 L274.366211,33.5810547 L274.366211,18.6689453 L279.639648,18.6689453 L279.639648,20.8076172 C280.469731,19.9189409 281.302242,19.2963885 282.137207,18.9399414 C282.972172,18.5834943 283.902339,18.4052734 284.927734,18.4052734 C288.501971,18.4052734 290.289062,20.5439239 290.289062,24.8212891 L290.289062,33.5810547 Z" id="DPS-Design"></path>
            <g id="宇宙星球-12" fill-rule="nonzero">
              <path d="M8.31506849,24.5 C8.31506849,32.9142857 15.3287671,40 23.6575342,40 C31.9863014,40 39,32.9142857 39,24.5 C39,16.0857143 31.9863014,9 23.6575342,9 C17.9589041,9 13.1369863,12.1 10.5068493,16.9714286 L9.63013699,16.9714286 C7.87671233,16.9714286 7,18.3 7,19.6285714 C7,20.9571429 7.87671233,21.8428571 8.75342466,22.2857143 C8.31506849,22.7285714 8.31506849,23.6142857 8.31506849,24.5 Z M23.6575342,10.3285714 C31.5479452,10.3285714 37.6849315,16.5285714 37.6849315,24.5 C37.6849315,32.4714286 31.5479452,38.6714286 23.6575342,38.6714286 C15.7671233,38.6714286 9.63013699,32.4714286 9.63013699,24.5 L9.63013699,22.2857143 C10.9452055,22.2857143 12.260274,20.9571429 12.260274,19.6285714 C12.260274,18.7428571 11.8219178,17.8571429 11.3835616,17.4142857 C14.0136986,12.9857143 18.3972603,10.3285714 23.6575342,10.3285714 Z" id="Shape" stroke="#FFFFFF"></path>
              <path d="M24,48 C37.0909091,48 48,37.0909091 48,24 C48,17.4545455 45.3818182,11.3454545 40.5818182,6.98181818 C41.0181818,6.10909091 41.0181818,5.67272727 41.0181818,4.8 C41.0181818,2.18181818 38.8363636,0 36.2181818,0 C34.4727273,0 33.1636364,0.872727273 32.2909091,2.18181818 C29.6727273,0.872727273 27.0545455,0 24,0 C10.9090909,0 0,10.9090909 0,24 C0,37.0909091 10.9090909,48 24,48 Z M24,1.30909091 C26.6181818,1.30909091 29.2363636,1.74545455 31.8545455,2.61818182 C31.8545455,3.05454545 31.4181818,3.92727273 31.4181818,4.36363636 C31.4181818,6.98181818 33.6,9.16363636 36.2181818,9.16363636 C37.5272727,9.16363636 38.8363636,8.72727273 39.7090909,7.85454545 C44.0727273,11.7818182 46.6909091,17.8909091 46.6909091,24 C46.6909091,36.6545455 36.6545455,46.6909091 24,46.6909091 C11.3454545,46.6909091 1.30909091,36.6545455 1.30909091,24 C1.30909091,11.3454545 11.3454545,1.30909091 24,1.30909091 Z" id="Shape" stroke="#FFFFFF"></path>
              <path d="M15,24.5 C15,29.1944204 18.8055796,33 23.5,33 C28.1944204,33 32,29.1944204 32,24.5 C32,19.8055796 28.1944204,16 23.5,16 C18.8055796,16 15,19.8055796 15,24.5 Z" id="Shape"></path>
            </g>
          </g>
        </g>
      </g>
    </g>
  </g>
</svg>
