<?xml version="1.0" encoding="UTF-8"?>
<svg width="271px" height="64px" viewBox="0 0 271 64" version="1.1" xmlns="http://www.w3.org/2000/svg" xmlns:xlink="http://www.w3.org/1999/xlink">
    <!-- Generator: Sketch 49.3 (51167) - http://www.bohemiancoding.com/sketch -->
    <title>Group 13</title>
    <desc>Created with Sketch.</desc>
    <defs></defs>
    <g id="DSHi-Fi" stroke="none" stroke-width="1" fill="none" fill-rule="evenodd">
        <g id="DevOps-Design---设计---图标" transform="translate(-387.000000, -800.000000)">
            <g id="Group-13" transform="translate(387.000000, 800.000000)">
                <g id="Group-8" transform="translate(0.000000, 1.000000)">
                    <g id="Group-12">
                        <rect id="Rectangle-30" fill="#DFE4EA" x="12" y="32" width="12" height="12"></rect>
                        <rect id="ruler-start" fill="#0074E4" x="12" y="26" width="1" height="5"></rect>
                        <rect id="ruler-end" fill="#0074E4" x="23" y="26" width="1" height="5"></rect>
                        <rect id="ruler-line" fill="#0074E4" x="12" y="28" width="12" height="1"></rect>
                        <polygon id="label-arrow" fill="#0074E4" points="14 22 18 18 22 22 18 26"></polygon>
                        <rect id="label-box" fill="#0074E4" x="0" y="0" width="35" height="22" rx="2"></rect>
                        <text id="label-text" font-family="HelveticaNeue, Helvetica Neue" font-size="12" font-weight="normal" fill="#FFFFFF">
                            <tspan x="4.162" y="15">12px</tspan>
                        </text>
                    </g>
                </g>
                <g id="Group-7" transform="translate(59.000000, 1.000000)">
                    <rect id="ruler-end" fill="#0074E4" x="24" y="26" width="1" height="5"></rect>
                    <g id="Group-11">
                        <rect id="Rectangle-30-Copy" fill="#DFE4EA" x="11" y="32" width="14" height="14"></rect>
                        <rect id="ruler-start" fill="#0074E4" x="11" y="26" width="1" height="5"></rect>
                        <rect id="ruler-line" fill="#0074E4" x="11" y="28" width="14" height="1"></rect>
                        <polygon id="label-arrow" fill="#0074E4" points="14 22 18 18 22 22 18 26"></polygon>
                        <rect id="label-box" fill="#0074E4" x="0" y="0" width="35" height="22" rx="2"></rect>
                        <text id="label-text" font-family="HelveticaNeue, Helvetica Neue" font-size="12" font-weight="normal" fill="#FFFFFF">
                            <tspan x="4.162" y="15">14px</tspan>
                        </text>
                    </g>
                </g>
                <g id="Group-6" transform="translate(177.000000, 1.000000)">
                    <g id="Group-9">
                        <rect id="Rectangle-30-Copy-3" fill="#DFE4EA" x="6" y="32" width="24" height="24"></rect>
                        <rect id="ruler-start" fill="#0074E4" x="6" y="26" width="1" height="5"></rect>
                        <rect id="ruler-end" fill="#0074E4" x="29" y="26" width="1" height="5"></rect>
                        <rect id="ruler-line" fill="#0074E4" x="6" y="28" width="24" height="1"></rect>
                        <polygon id="label-arrow" fill="#0074E4" points="14 22 18 18 22 22 18 26"></polygon>
                        <rect id="label-box" fill="#0074E4" x="0" y="0" width="35" height="22" rx="2"></rect>
                        <text id="label-text" font-family="HelveticaNeue, Helvetica Neue" font-size="12" font-weight="normal" fill="#FFFFFF">
                            <tspan x="4.162" y="15">24px</tspan>
                        </text>
                    </g>
                </g>
                <g id="Group-4" transform="translate(118.000000, 1.000000)">
                    <g id="Group-5">
                        <g id="Group-10">
                            <rect id="Rectangle-30-Copy-2" fill="#DFE4EA" x="9" y="32" width="18" height="18"></rect>
                            <rect id="ruler-end" fill="#0074E4" x="26" y="26" width="1" height="5"></rect>
                            <rect id="ruler-line" fill="#0074E4" x="9" y="28" width="18" height="1"></rect>
                            <polygon id="label-arrow" fill="#0074E4" points="14 22 18 18 22 22 18 26"></polygon>
                            <rect id="label-box" fill="#0074E4" x="0" y="0" width="35" height="22" rx="2"></rect>
                            <text id="label-text" font-family="HelveticaNeue, Helvetica Neue" font-size="12" font-weight="normal" fill="#FFFFFF">
                                <tspan x="4.162" y="15">18px</tspan>
                            </text>
                            <rect id="ruler-start" fill="#0074E4" x="9" y="26" width="1" height="5"></rect>
                        </g>
                    </g>
                </g>
                <g id="WIDTH#B532F4AC-9063-47DF-923B-1FDAC7994762" transform="translate(0.000000, 1.000000)"></g>
                <g id="WIDTH#6440F5C9-FB1D-4533-B350-D939A4E2CCCC" transform="translate(59.000000, 1.000000)"></g>
                <g id="WIDTH#C9C87682-E342-473C-8C48-B45B4471682F" transform="translate(118.000000, 1.000000)"></g>
                <g id="WIDTH#C138013F-F57F-4EA4-BD28-F60C35AA8AA9" transform="translate(177.000000, 1.000000)"></g>
                <rect id="Rectangle-30-Copy-4" fill="#DFE4EA" x="238" y="32" width="32" height="32"></rect>
                <g id="WIDTH#3571394C-0456-4DDF-9159-D13365D8BAF2" transform="translate(236.000000, 0.000000)">
                    <rect id="ruler-start" fill="#0074E4" x="2" y="26" width="1" height="5"></rect>
                    <rect id="ruler-end" fill="#0074E4" x="33" y="26" width="1" height="5"></rect>
                    <rect id="ruler-line" fill="#0074E4" x="2" y="28" width="32" height="1"></rect>
                    <polygon id="label-arrow" fill="#0074E4" points="14 22 18 18 22 22 18 26"></polygon>
                    <rect id="label-box" fill="#0074E4" x="0" y="0" width="35" height="22" rx="2"></rect>
                    <text id="label-text" font-family="HelveticaNeue, Helvetica Neue" font-size="12" font-weight="normal" fill="#FFFFFF">
                        <tspan x="4.162" y="15">32px</tspan>
                    </text>
                </g>
            </g>
        </g>
    </g>
</svg>