<?xml version="1.0" encoding="UTF-8"?>
<svg width="987px" height="527px" viewBox="0 0 987 527" version="1.1" xmlns="http://www.w3.org/2000/svg" xmlns:xlink="http://www.w3.org/1999/xlink">
    <!-- Generator: Sketch 49.3 (51167) - http://www.bohemiancoding.com/sketch -->
    <title>Group 11</title>
    <desc>Created with Sketch.</desc>
    <defs></defs>
    <g id="DSHi-Fi" stroke="none" stroke-width="1" fill="none" fill-rule="evenodd">
        <g id="DPS-Design---设计---布局" transform="translate(-380.000000, -1719.000000)">
            <g id="Group-11" transform="translate(380.000000, 1719.000000)">
                <g id="Group-5-Copy">
                    <g id="Group-6">
                        <rect id="Rectangle-20" fill="#F3F6FB" x="0" y="0" width="987" height="527"></rect>
                        <rect id="Rectangle-20-Copy" fill="#0074E5" x="0" y="0" width="987" height="60"></rect>
                        <text id="导航目录一" font-family="PingFangSC-Regular, PingFang SC" font-size="14" font-weight="normal" fill="#FFFFFF">
                            <tspan x="705" y="35">导航目录一</tspan>
                        </text>
                        <text id="导航目录二" font-family="PingFangSC-Regular, PingFang SC" font-size="14" font-weight="normal" fill="#FFFFFF">
                            <tspan x="799" y="35">导航目录二</tspan>
                        </text>
                        <text id="导航目录三" font-family="PingFangSC-Regular, PingFang SC" font-size="14" font-weight="normal" fill="#FFFFFF">
                            <tspan x="893" y="35">导航目录三</tspan>
                        </text>
                        <path d="M42.4489902,27.5416882 C42.4489902,29.3801231 42.1145381,30.8560276 41.445624,31.9694459 C40.7767099,33.0828642 39.9891293,33.9848058 39.0828586,34.6752978 C37.7968173,35.6851423 35.9972496,36.190057 33.6841015,36.190057 L24,36.190057 L24,18.2459865 L31.457276,18.2459865 C32.5793255,18.2459865 33.5395265,18.3042459 34.3379078,18.4207664 C35.1362892,18.537287 35.8548216,18.7012763 36.4935267,18.9127395 C37.1322317,19.1242027 37.675986,19.3615557 38.1248058,19.6248058 C38.5736256,19.8880559 38.974968,20.1707218 39.3288452,20.472812 C39.9416568,20.9734187 40.4789378,21.5646436 40.9407043,22.2465044 C41.4024708,22.9283652 41.7692892,23.7181036 42.0411704,24.6157431 C42.3130516,25.5133827 42.4489902,26.488688 42.4489902,27.5416882 Z M36.9466598,27.3086484 C36.9466598,25.8499841 36.6683094,24.7128472 36.1116002,23.8972035 C35.5548911,23.0815599 34.885987,22.5356479 34.1048679,22.2594511 C33.3237489,21.9832543 32.5275373,21.8451579 31.7162092,21.8451579 L29.4117038,21.8451579 L29.4117038,32.4743656 L31.7162092,32.4743656 C33.1317178,32.4743656 34.3573226,32.1377558 35.3930606,31.4645262 C36.4287985,30.7912965 36.9466598,29.4060177 36.9466598,27.3086484 Z M58.5416882,30.7265665 L49.2589332,30.7265665 C49.4401873,31.5292635 49.8846849,32.185221 50.5924392,32.6944588 C51.3001934,33.2036967 52.1028783,33.4583118 53.0005179,33.4583118 C54.5713871,33.4583118 56.3062222,33.0181297 58.2050751,32.1377525 L58.2050751,35.0248576 C57.5232143,35.3787347 56.6967941,35.7002402 55.7257897,35.9893837 C54.7547854,36.2785273 53.5183918,36.4230968 52.0165717,36.4230968 C50.3939156,36.4230968 49.0129524,36.1210111 47.8736406,35.5168307 C46.7343288,34.9126502 45.8820156,34.0927033 45.3166753,33.0569653 C44.751335,32.0212273 44.4686691,30.8474086 44.4686691,29.5354738 C44.4686691,28.2408014 44.751335,27.0820869 45.3166753,26.0592957 C45.8820156,25.0365045 46.7343288,24.2338196 47.8736406,23.651217 C49.0129524,23.0686144 50.3939156,22.7773175 52.0165717,22.7773175 C53.0868343,22.7773175 54.120399,23.0081972 55.1172967,23.4699637 C56.1141945,23.9317303 56.9341414,24.6869445 57.5771621,25.7356292 C58.2201827,26.7843139 58.5416882,28.1372263 58.5416882,29.794407 L58.5416882,30.7265665 Z M54.1657172,28.4220611 C54.1657172,27.5762084 53.956415,26.9008311 53.5378042,26.3959089 C53.1191935,25.8909866 52.5171798,25.6385293 51.7317452,25.6385293 C50.9549417,25.6385293 50.327035,25.8953021 49.8480062,26.4088555 C49.3689774,26.9224089 49.1294666,27.5934707 49.1294666,28.4220611 L54.1657172,28.4220611 Z M74.7250129,23.0103573 L68.7307095,36.190057 L65.286898,36.190057 L59.4220611,23.0103573 L64.4324184,23.0103573 L67.1641636,29.910927 L70.193682,23.0103573 L74.7250129,23.0103573 Z M96.2553081,27.2050751 C96.2553081,28.8795181 95.86907,30.4201552 95.0965821,31.8270326 C94.3240942,33.23391 93.1740107,34.3516271 91.6462973,35.1802175 C90.1185838,36.0088079 88.2585989,36.4230968 86.0662869,36.4230968 C83.8480814,36.4230968 81.9708345,35.9915458 80.4344899,35.1284309 C78.8981453,34.2653159 77.7566928,33.1303367 77.0100984,31.7234593 C76.2635039,30.316582 75.8902123,28.8104689 75.8902123,27.2050751 C75.8902123,25.5910501 76.2613462,24.0827793 77.0036251,22.6802175 C77.7459039,21.2776557 78.8873564,20.146992 80.4280166,19.2881926 C81.9686768,18.4293933 83.8480814,18 86.0662869,18 C87.7234676,18 89.2015298,18.2459841 90.5005179,18.7379596 C91.7995059,19.2299351 92.8675946,19.8966814 93.7048162,20.7382185 C94.5420377,21.5797556 95.1764177,22.5593764 95.6079751,23.6771103 C96.0395326,24.7948442 96.2553081,25.9708207 96.2553081,27.2050751 Z M90.7400311,27.2050751 C90.7400311,26.5318454 90.6407743,25.9168852 90.4422579,25.3601761 C90.2437415,24.8034669 89.9438135,24.3201298 89.542465,23.9101502 C89.1411166,23.5001706 88.6513062,23.1808228 88.0730192,22.9520974 C87.4947321,22.7233719 86.8258281,22.6090109 86.0662869,22.6090109 C84.6162538,22.6090109 83.4769591,23.0319309 82.6483687,23.8777835 C81.8197784,24.7236362 81.4054894,25.8327223 81.4054894,27.2050751 C81.4054894,28.5774279 81.8219361,29.6886717 82.6548421,30.53884 C83.487748,31.3890082 84.6248849,31.814086 86.0662869,31.814086 C87.0588691,31.814086 87.9047091,31.6177303 88.6038322,31.2250129 C89.3029553,30.8322956 89.8337631,30.2885414 90.1962714,29.5937338 C90.5587796,28.8989263 90.7400311,28.1027147 90.7400311,27.2050751 Z M113.331952,29.5095805 C113.331952,30.3899578 113.206803,31.2401133 112.956499,32.0600725 C112.706196,32.8800317 112.324273,33.6201417 111.81072,34.2804247 C111.297166,34.9407076 110.636893,35.4628843 109.829881,35.8469705 C109.022868,36.2310566 108.084245,36.4230968 107.013982,36.4230968 C106.150867,36.4230968 105.471175,36.3324711 104.974883,36.151217 C104.478592,35.9699628 103.984466,35.7282943 103.492491,35.426204 L103.492491,42.1843604 L98.8316934,42.1843604 L98.8316934,23.0103573 L103.492491,23.0103573 L103.492491,24.20145 C103.958573,23.795786 104.474276,23.4570184 105.039617,23.1851372 C105.604957,22.913256 106.37096,22.7773175 107.337649,22.7773175 C108.295706,22.7773175 109.236488,23.0146705 110.160021,23.4893837 C111.083554,23.964097 111.843084,24.704207 112.438633,25.7097359 C113.034182,26.7152648 113.331952,27.981867 113.331952,29.5095805 Z M108.425168,29.6131538 C108.425168,28.819088 108.300019,28.1739193 108.049715,27.6776282 C107.799412,27.1813371 107.475749,26.8231497 107.078716,26.6030554 C106.681683,26.3829611 106.271709,26.2729156 105.848783,26.2729156 C105.296389,26.2729156 104.843261,26.3613835 104.489384,26.5383221 C104.135507,26.7152607 103.803212,26.9375095 103.492491,27.2050751 L103.492491,32.2413257 C103.656483,32.3276372 103.831261,32.4247362 104.016831,32.5326256 C104.2024,32.640515 104.387967,32.7332984 104.573537,32.8109788 C104.759107,32.8886591 104.95762,32.9533918 105.169083,33.0051787 C105.380547,33.0569656 105.607111,33.0828586 105.848783,33.0828586 C106.582431,33.0828586 107.195233,32.7721419 107.687209,32.1506991 C108.179184,31.5292563 108.425168,30.6834164 108.425168,29.6131538 Z M126.058519,32.344899 C126.058519,33.55326 125.616179,34.5350385 124.731486,35.2902641 C123.846793,36.0454897 122.532721,36.4230968 120.789228,36.4230968 C119.813908,36.4230968 118.946491,36.3346289 118.18695,36.1576903 C117.427409,35.9807517 116.598831,35.7282944 115.701191,35.4003107 L115.701191,32.0859658 C116.486626,32.5347856 117.168476,32.8757109 117.746763,33.1087519 C118.32505,33.341793 118.95943,33.4583118 119.649922,33.4583118 C120.815128,33.4583118 121.397721,33.138964 121.397721,32.5002589 C121.397721,32.2844802 121.313569,32.09244 121.145262,31.9241326 C120.976954,31.7558252 120.683499,31.5659427 120.264889,31.3544795 C119.846278,31.1430164 119.287419,30.890559 118.588296,30.5970999 C117.725181,30.2173294 116.991545,29.7080992 116.387364,29.0693941 C115.783184,28.430689 115.481098,27.6495817 115.481098,26.7260487 C115.481098,26.0700813 115.681769,25.4400168 116.083118,24.8358364 C116.484466,24.2316559 117.090795,23.73753 117.902123,23.3534438 C118.713451,22.9693577 119.693072,22.7773175 120.841015,22.7773175 C121.117212,22.7773175 121.468926,22.7967372 121.896168,22.8355774 C122.32341,22.8744176 122.862848,22.9758321 123.5145,23.1398239 C124.166152,23.3038158 124.785428,23.5368533 125.372346,23.8389436 L125.372346,27.0626618 C125.096149,26.89867 124.865269,26.7605737 124.6797,26.6483687 C124.49413,26.5361638 124.245988,26.411014 123.935267,26.2729156 C123.624545,26.1348172 123.259885,26.0118252 122.841274,25.9039358 C122.422663,25.7960464 121.99327,25.7421025 121.553081,25.7421025 C121.01795,25.7421025 120.651132,25.8456748 120.452615,26.0528224 C120.254099,26.25997 120.154842,26.4671144 120.154842,26.674262 C120.154842,26.8900408 120.258414,27.090712 120.465562,27.2762817 C120.672709,27.4618514 121.134469,27.6927312 121.850854,27.968928 C122.886592,28.3659609 123.71517,28.7737766 124.336613,29.1923874 C124.958056,29.6109981 125.400396,30.0705999 125.663646,30.5712066 C125.926896,31.0718133 126.058519,31.6630382 126.058519,32.344899 Z M155.66753,27.5416882 C155.66753,29.3801231 155.333078,30.8560276 154.664164,31.9694459 C153.99525,33.0828642 153.207669,33.9848058 152.301398,34.6752978 C151.015357,35.6851423 149.215789,36.190057 146.902641,36.190057 L137.21854,36.190057 L137.21854,18.2459865 L144.675816,18.2459865 C145.797865,18.2459865 146.758066,18.3042459 147.556447,18.4207664 C148.354829,18.537287 149.073361,18.7012763 149.712066,18.9127395 C150.350771,19.1242027 150.894526,19.3615557 151.343345,19.6248058 C151.792165,19.8880559 152.193508,20.1707218 152.547385,20.472812 C153.160196,20.9734187 153.697477,21.5646436 154.159244,22.2465044 C154.62101,22.9283652 154.987829,23.7181036 155.25971,24.6157431 C155.531591,25.5133827 155.66753,26.488688 155.66753,27.5416882 Z M150.165199,27.3086484 C150.165199,25.8499841 149.886849,24.7128472 149.33014,23.8972035 C148.773431,23.0815599 148.104527,22.5356479 147.323408,22.2594511 C146.542289,21.9832543 145.746077,21.8451579 144.934749,21.8451579 L142.630243,21.8451579 L142.630243,32.4743656 L144.934749,32.4743656 C146.350257,32.4743656 147.575862,32.1377558 148.6116,31.4645262 C149.647338,30.7912965 150.165199,29.4060177 150.165199,27.3086484 Z M171.760228,30.7265665 L162.477473,30.7265665 C162.658727,31.5292635 163.103224,32.185221 163.810979,32.6944588 C164.518733,33.2036967 165.321418,33.4583118 166.219057,33.4583118 C167.789927,33.4583118 169.524762,33.0181297 171.423615,32.1377525 L171.423615,35.0248576 C170.741754,35.3787347 169.915334,35.7002402 168.944329,35.9893837 C167.973325,36.2785273 166.736931,36.4230968 165.235111,36.4230968 C163.612455,36.4230968 162.231492,36.1210111 161.09218,35.5168307 C159.952868,34.9126502 159.100555,34.0927033 158.535215,33.0569653 C157.969875,32.0212273 157.687209,30.8474086 157.687209,29.5354738 C157.687209,28.2408014 157.969875,27.0820869 158.535215,26.0592957 C159.100555,25.0365045 159.952868,24.2338196 161.09218,23.651217 C162.231492,23.0686144 163.612455,22.7773175 165.235111,22.7773175 C166.305374,22.7773175 167.338939,23.0081972 168.335836,23.4699637 C169.332734,23.9317303 170.152681,24.6869445 170.795702,25.7356292 C171.438722,26.7843139 171.760228,28.1372263 171.760228,29.794407 L171.760228,30.7265665 Z M167.384257,28.4220611 C167.384257,27.5762084 167.174955,26.9008311 166.756344,26.3959089 C166.337733,25.8909866 165.735719,25.6385293 164.950285,25.6385293 C164.173481,25.6385293 163.545575,25.8953021 163.066546,26.4088555 C162.587517,26.9224089 162.348006,27.5934707 162.348006,28.4220611 L167.384257,28.4220611 Z M184.357328,32.344899 C184.357328,33.55326 183.914988,34.5350385 183.030295,35.2902641 C182.145602,36.0454897 180.83153,36.4230968 179.088037,36.4230968 C178.112717,36.4230968 177.2453,36.3346289 176.485759,36.1576903 C175.726218,35.9807517 174.89764,35.7282944 174,35.4003107 L174,32.0859658 C174.785435,32.5347856 175.467285,32.8757109 176.045572,33.1087519 C176.623859,33.341793 177.258239,33.4583118 177.948731,33.4583118 C179.113936,33.4583118 179.69653,33.138964 179.69653,32.5002589 C179.69653,32.2844802 179.612378,32.09244 179.44407,31.9241326 C179.275763,31.7558252 178.982308,31.5659427 178.563698,31.3544795 C178.145087,31.1430164 177.586228,30.890559 176.887105,30.5970999 C176.02399,30.2173294 175.290353,29.7080992 174.686173,29.0693941 C174.081992,28.430689 173.779907,27.6495817 173.779907,26.7260487 C173.779907,26.0700813 173.980578,25.4400168 174.381926,24.8358364 C174.783275,24.2316559 175.389604,23.73753 176.200932,23.3534438 C177.01226,22.9693577 177.991881,22.7773175 179.139824,22.7773175 C179.416021,22.7773175 179.767735,22.7967372 180.194977,22.8355774 C180.622219,22.8744176 181.161657,22.9758321 181.813309,23.1398239 C182.464961,23.3038158 183.084237,23.5368533 183.671155,23.8389436 L183.671155,27.0626618 C183.394958,26.89867 183.164078,26.7605737 182.978509,26.6483687 C182.792939,26.5361638 182.544797,26.411014 182.234076,26.2729156 C181.923354,26.1348172 181.558694,26.0118252 181.140083,25.9039358 C180.721472,25.7960464 180.292079,25.7421025 179.85189,25.7421025 C179.316759,25.7421025 178.949941,25.8456748 178.751424,26.0528224 C178.552908,26.25997 178.453651,26.4671144 178.453651,26.674262 C178.453651,26.8900408 178.557223,27.090712 178.764371,27.2762817 C178.971518,27.4618514 179.433278,27.6927312 180.149663,27.968928 C181.185401,28.3659609 182.013979,28.7737766 182.635422,29.1923874 C183.256865,29.6109981 183.699205,30.0705999 183.962455,30.5712066 C184.225705,31.0718133 184.357328,31.6630382 184.357328,32.344899 Z M191.413257,19.9678923 C191.413257,20.5116547 191.219059,20.9734143 190.830658,21.3531849 C190.442256,21.7329555 189.980496,21.9228379 189.445365,21.9228379 C189.082857,21.9228379 188.75272,21.8365277 188.454946,21.6639047 C188.157171,21.4912817 187.921976,21.2560864 187.749353,20.9583118 C187.57673,20.6605371 187.490419,20.3304006 187.490419,19.9678923 C187.490419,19.432761 187.680302,18.9710014 188.060073,18.5825997 C188.439843,18.194198 188.901603,18 189.445365,18 C189.980496,18 190.442256,18.194198 190.830658,18.5825997 C191.219059,18.9710014 191.413257,19.432761 191.413257,19.9678923 Z M191.788711,36.190057 L187.114966,36.190057 L187.114966,23.0103573 L191.788711,23.0103573 L191.788711,36.190057 Z M208.256862,25.8197825 L205.952356,25.8197825 C206.763684,26.5275368 207.169342,27.3949543 207.169342,28.4220611 C207.169342,28.9658235 207.054981,29.4880003 206.826256,29.9886069 C206.59753,30.4892136 206.260921,30.9337112 205.816416,31.3221129 C205.371912,31.7105146 204.823842,32.0277046 204.172191,32.2736924 C203.520539,32.5196802 202.776113,32.6685653 201.938892,32.7203521 C200.859998,32.7635079 200.320559,33.0526471 200.320559,33.5877784 C200.320559,33.7949259 200.389607,33.9459688 200.527706,34.0409114 C200.665804,34.1358541 200.883738,34.20706 201.181512,34.2545313 C201.479287,34.3020027 201.982044,34.3559465 202.689798,34.4163646 C203.492495,34.4854138 204.239078,34.6062481 204.92957,34.7788711 C205.620062,34.951494 206.263073,35.3139969 206.858622,35.8663905 C207.454172,36.418784 207.751942,37.2085224 207.751942,38.2356292 C207.751942,39.0555884 207.529693,39.7805941 207.085189,40.410668 C206.640685,41.040742 205.922152,41.5327101 204.92957,41.8865873 C203.936988,42.2404644 202.625073,42.4174003 200.993786,42.4174003 C198.646113,42.4174003 196.922067,42.1023681 195.821595,41.4722941 C194.721123,40.8422202 194.170896,40.0006958 194.170896,38.9476955 C194.170896,38.6628676 194.242102,38.3348888 194.384516,37.9637494 C194.52693,37.5926099 194.829015,37.2344226 195.290782,36.8891766 C195.752548,36.5439306 196.42361,36.3108931 197.303988,36.190057 C196.993266,36.077852 196.725705,35.8599188 196.501295,35.5362506 C196.276885,35.2125825 196.164682,34.873815 196.164682,34.5199379 C196.164682,34.0624869 196.322198,33.6093584 196.637235,33.1605386 C196.952272,32.7117188 197.46366,32.4225796 198.171414,32.2931124 C197.187463,32.0341779 196.337307,31.5465252 195.620922,30.8301398 C194.904536,30.1137544 194.546349,29.1859197 194.546349,28.046608 C194.546349,27.183493 194.712496,26.4282787 195.044795,25.7809425 C195.377095,25.1336063 195.836697,24.6071141 196.423615,24.20145 C197.010533,23.795786 197.692383,23.495858 198.469187,23.3016572 C199.24599,23.1074563 200.096146,23.0103573 201.019679,23.0103573 L208.256862,23.0103573 L208.256862,25.8197825 Z M203.104091,28.046608 C203.104091,27.3820095 202.877527,26.849044 202.424392,26.4476955 C201.971256,26.046347 201.464184,25.8456758 200.903159,25.8456758 C200.186774,25.8456758 199.623599,26.0873444 199.21362,26.5706888 C198.80364,27.0540331 198.598654,27.5632633 198.598654,28.0983946 C198.598654,28.469534 198.687122,28.8147749 198.86406,29.1341274 C199.040999,29.4534799 199.291298,29.7102528 199.614966,29.9044537 C199.938634,30.0986545 200.324873,30.1957535 200.773692,30.1957535 C201.446922,30.1957535 202.003623,29.9842935 202.443811,29.5613672 C202.884,29.1384408 203.104091,28.6335262 203.104091,28.046608 Z M204.036251,38.6499223 C204.036251,38.0716353 203.727692,37.6983437 203.110564,37.5300363 C202.493437,37.3617288 201.8569,37.2775764 201.200932,37.2775764 C200.122038,37.2775764 199.343089,37.3919374 198.86406,37.6206629 C198.385031,37.8493883 198.14552,38.2140489 198.14552,38.7146556 C198.14552,39.6986067 199.138088,40.1905748 201.123252,40.1905748 C202.012261,40.1905748 202.720004,40.0632673 203.246504,39.8086484 C203.773005,39.5540295 204.036251,39.1677913 204.036251,38.6499223 Z M224,36.190057 L219.339202,36.190057 L219.339202,29.0823408 C219.339202,28.3573242 219.220526,27.725102 218.983169,27.1856551 C218.745813,26.6462082 218.225794,26.3764889 217.423097,26.3764889 C217.043326,26.3764889 216.708874,26.4476948 216.419731,26.5901088 C216.130587,26.7325227 215.871657,26.9159319 215.642931,27.1403418 C215.414206,27.3647517 215.222165,27.5805272 215.066805,27.7876748 C214.911444,27.9948224 214.75177,28.2149134 214.587778,28.4479544 L214.587778,36.190057 L209.926981,36.190057 L209.926981,23.0103573 L214.587778,23.0103573 L214.587778,24.9005697 C215.321426,24.115135 216.057221,23.5649075 216.795184,23.2498705 C217.533147,22.9348336 218.355252,22.7773175 219.261523,22.7773175 C222.420523,22.7773175 224,24.6675109 224,28.4479544 L224,36.190057 Z" id="DPS-Design" fill="#FFFFFF"></path>
                        <rect id="Rectangle-23" fill="#FFFFFF" x="264" y="84" width="700" height="419" rx="2"></rect>
                        <text id="Main-Auto" font-family="PingFangSC-Medium, PingFang SC" font-size="16" font-weight="400" fill="#0074E4">
                            <tspan x="580" y="300">Main Auto</tspan>
                        </text>
                        <rect id="Rectangle-23-Copy" fill="#263238" x="0" y="60" width="240" height="467"></rect>
                    </g>
                </g>
                <text id="Fixed" font-family="HelveticaNeue-Medium, Helvetica Neue" font-size="16" font-weight="400" fill="#FFFFFF">
                    <tspan x="100" y="300">Fixed</tspan>
                </text>
                <g id="Group-7" transform="translate(264.000000, 294.000000)" fill="#0074E4">
                    <rect id="ruler-start" x="403" y="0" width="1" height="5"></rect>
                    <rect id="ruler-end" x="699" y="0" width="1" height="5"></rect>
                    <rect id="ruler-line" x="403" y="2" width="297" height="1"></rect>
                    <rect id="ruler-start" x="0" y="0" width="1" height="5"></rect>
                    <rect id="ruler-end" x="306" y="0" width="1" height="5"></rect>
                    <rect id="ruler-line" x="0" y="2" width="307" height="1"></rect>
                </g>
            </g>
        </g>
    </g>
</svg>
